<mxfile host="app.diagrams.net" modified="2022-01-29T13:39:48.966Z" agent="5.0 (Windows NT 10.0; Win64; x64) AppleWebKit/537.36 (KHTML, like Gecko) Chrome/97.0.4692.99 Safari/537.36" etag="hmbfwySZnI-ZueQaHUpb" version="16.4.5" type="github">
  <diagram id="kLxrR2jJDY1hjqR1FGhj" name="Page-1">
    <mxGraphModel dx="1422" dy="762" grid="1" gridSize="10" guides="1" tooltips="1" connect="1" arrows="1" fold="1" page="1" pageScale="1" pageWidth="850" pageHeight="1100" math="0" shadow="0">
      <root>
        <mxCell id="0" />
        <mxCell id="1" parent="0" />
        <mxCell id="lXKv8VVwfeRp8iMqqX64-47" value="" style="group;fillColor=none;strokeColor=none;" vertex="1" connectable="0" parent="1">
          <mxGeometry x="60" y="170" width="480" height="370" as="geometry" />
        </mxCell>
        <mxCell id="lXKv8VVwfeRp8iMqqX64-1" value="" style="rounded=1;whiteSpace=wrap;html=1;fillColor=#f8cecc;strokeColor=#b85450;" vertex="1" parent="lXKv8VVwfeRp8iMqqX64-47">
          <mxGeometry width="480" height="370" as="geometry" />
        </mxCell>
        <mxCell id="lXKv8VVwfeRp8iMqqX64-15" value="" style="sketch=0;aspect=fixed;html=1;points=[];align=center;image;fontSize=12;image=img/lib/mscae/Kubernetes_Services.svg;" vertex="1" parent="lXKv8VVwfeRp8iMqqX64-47">
          <mxGeometry x="370" y="300" width="60" height="44.4" as="geometry" />
        </mxCell>
        <mxCell id="lXKv8VVwfeRp8iMqqX64-19" value="" style="group" vertex="1" connectable="0" parent="lXKv8VVwfeRp8iMqqX64-47">
          <mxGeometry x="80" y="290" width="130" height="48" as="geometry" />
        </mxCell>
        <mxCell id="lXKv8VVwfeRp8iMqqX64-13" value="" style="sketch=0;html=1;dashed=0;whitespace=wrap;fillColor=#2875E2;strokeColor=#ffffff;points=[[0.005,0.63,0],[0.1,0.2,0],[0.9,0.2,0],[0.5,0,0],[0.995,0.63,0],[0.72,0.99,0],[0.5,1,0],[0.28,0.99,0]];shape=mxgraph.kubernetes.icon;prIcon=pod" vertex="1" parent="lXKv8VVwfeRp8iMqqX64-19">
          <mxGeometry x="80" width="50" height="48" as="geometry" />
        </mxCell>
        <mxCell id="lXKv8VVwfeRp8iMqqX64-17" value="" style="sketch=0;html=1;dashed=0;whitespace=wrap;fillColor=#2875E2;strokeColor=#ffffff;points=[[0.005,0.63,0],[0.1,0.2,0],[0.9,0.2,0],[0.5,0,0],[0.995,0.63,0],[0.72,0.99,0],[0.5,1,0],[0.28,0.99,0]];shape=mxgraph.kubernetes.icon;prIcon=cm" vertex="1" parent="lXKv8VVwfeRp8iMqqX64-19">
          <mxGeometry width="50" height="48" as="geometry" />
        </mxCell>
        <mxCell id="lXKv8VVwfeRp8iMqqX64-18" value="" style="edgeStyle=orthogonalEdgeStyle;rounded=0;orthogonalLoop=1;jettySize=auto;html=1;" edge="1" parent="lXKv8VVwfeRp8iMqqX64-19" source="lXKv8VVwfeRp8iMqqX64-13" target="lXKv8VVwfeRp8iMqqX64-17">
          <mxGeometry relative="1" as="geometry" />
        </mxCell>
        <mxCell id="lXKv8VVwfeRp8iMqqX64-24" value="" style="group" vertex="1" connectable="0" parent="lXKv8VVwfeRp8iMqqX64-47">
          <mxGeometry x="80" y="170" width="130" height="48" as="geometry" />
        </mxCell>
        <mxCell id="lXKv8VVwfeRp8iMqqX64-25" value="" style="sketch=0;html=1;dashed=0;whitespace=wrap;fillColor=#2875E2;strokeColor=#ffffff;points=[[0.005,0.63,0],[0.1,0.2,0],[0.9,0.2,0],[0.5,0,0],[0.995,0.63,0],[0.72,0.99,0],[0.5,1,0],[0.28,0.99,0]];shape=mxgraph.kubernetes.icon;prIcon=pod" vertex="1" parent="lXKv8VVwfeRp8iMqqX64-24">
          <mxGeometry x="80" width="50" height="48" as="geometry" />
        </mxCell>
        <mxCell id="lXKv8VVwfeRp8iMqqX64-26" value="" style="sketch=0;html=1;dashed=0;whitespace=wrap;fillColor=#2875E2;strokeColor=#ffffff;points=[[0.005,0.63,0],[0.1,0.2,0],[0.9,0.2,0],[0.5,0,0],[0.995,0.63,0],[0.72,0.99,0],[0.5,1,0],[0.28,0.99,0]];shape=mxgraph.kubernetes.icon;prIcon=cm" vertex="1" parent="lXKv8VVwfeRp8iMqqX64-24">
          <mxGeometry width="50" height="48" as="geometry" />
        </mxCell>
        <mxCell id="lXKv8VVwfeRp8iMqqX64-27" value="" style="edgeStyle=orthogonalEdgeStyle;rounded=0;orthogonalLoop=1;jettySize=auto;html=1;" edge="1" parent="lXKv8VVwfeRp8iMqqX64-24" source="lXKv8VVwfeRp8iMqqX64-25" target="lXKv8VVwfeRp8iMqqX64-26">
          <mxGeometry relative="1" as="geometry" />
        </mxCell>
        <mxCell id="lXKv8VVwfeRp8iMqqX64-32" value="" style="group" vertex="1" connectable="0" parent="lXKv8VVwfeRp8iMqqX64-47">
          <mxGeometry x="80" y="50" width="130" height="48" as="geometry" />
        </mxCell>
        <mxCell id="lXKv8VVwfeRp8iMqqX64-33" value="" style="sketch=0;html=1;dashed=0;whitespace=wrap;fillColor=#2875E2;strokeColor=#ffffff;points=[[0.005,0.63,0],[0.1,0.2,0],[0.9,0.2,0],[0.5,0,0],[0.995,0.63,0],[0.72,0.99,0],[0.5,1,0],[0.28,0.99,0]];shape=mxgraph.kubernetes.icon;prIcon=pod" vertex="1" parent="lXKv8VVwfeRp8iMqqX64-32">
          <mxGeometry x="80" width="50" height="48" as="geometry" />
        </mxCell>
        <mxCell id="lXKv8VVwfeRp8iMqqX64-34" value="" style="sketch=0;html=1;dashed=0;whitespace=wrap;fillColor=#2875E2;strokeColor=#ffffff;points=[[0.005,0.63,0],[0.1,0.2,0],[0.9,0.2,0],[0.5,0,0],[0.995,0.63,0],[0.72,0.99,0],[0.5,1,0],[0.28,0.99,0]];shape=mxgraph.kubernetes.icon;prIcon=cm" vertex="1" parent="lXKv8VVwfeRp8iMqqX64-32">
          <mxGeometry width="50" height="48" as="geometry" />
        </mxCell>
        <mxCell id="lXKv8VVwfeRp8iMqqX64-35" value="" style="edgeStyle=orthogonalEdgeStyle;rounded=0;orthogonalLoop=1;jettySize=auto;html=1;" edge="1" parent="lXKv8VVwfeRp8iMqqX64-32" source="lXKv8VVwfeRp8iMqqX64-33" target="lXKv8VVwfeRp8iMqqX64-34">
          <mxGeometry relative="1" as="geometry" />
        </mxCell>
        <mxCell id="lXKv8VVwfeRp8iMqqX64-36" value="" style="sketch=0;html=1;dashed=0;whitespace=wrap;fillColor=#2875E2;strokeColor=#ffffff;points=[[0.005,0.63,0],[0.1,0.2,0],[0.9,0.2,0],[0.5,0,0],[0.995,0.63,0],[0.72,0.99,0],[0.5,1,0],[0.28,0.99,0]];shape=mxgraph.kubernetes.icon;prIcon=secret" vertex="1" parent="lXKv8VVwfeRp8iMqqX64-47">
          <mxGeometry x="80" y="110" width="50" height="48" as="geometry" />
        </mxCell>
        <mxCell id="lXKv8VVwfeRp8iMqqX64-37" value="" style="sketch=0;html=1;dashed=0;whitespace=wrap;fillColor=#2875E2;strokeColor=#ffffff;points=[[0.005,0.63,0],[0.1,0.2,0],[0.9,0.2,0],[0.5,0,0],[0.995,0.63,0],[0.72,0.99,0],[0.5,1,0],[0.28,0.99,0]];shape=mxgraph.kubernetes.icon;prIcon=svc" vertex="1" parent="lXKv8VVwfeRp8iMqqX64-47">
          <mxGeometry x="365" y="170" width="50" height="48" as="geometry" />
        </mxCell>
        <mxCell id="lXKv8VVwfeRp8iMqqX64-38" value="" style="edgeStyle=orthogonalEdgeStyle;rounded=0;orthogonalLoop=1;jettySize=auto;html=1;" edge="1" parent="lXKv8VVwfeRp8iMqqX64-47" source="lXKv8VVwfeRp8iMqqX64-29" target="lXKv8VVwfeRp8iMqqX64-36">
          <mxGeometry relative="1" as="geometry" />
        </mxCell>
        <mxCell id="lXKv8VVwfeRp8iMqqX64-42" style="edgeStyle=orthogonalEdgeStyle;rounded=0;orthogonalLoop=1;jettySize=auto;html=1;exitX=0.995;exitY=0.63;exitDx=0;exitDy=0;exitPerimeter=0;entryX=0.005;entryY=0.63;entryDx=0;entryDy=0;entryPerimeter=0;" edge="1" parent="lXKv8VVwfeRp8iMqqX64-47" source="lXKv8VVwfeRp8iMqqX64-29" target="lXKv8VVwfeRp8iMqqX64-37">
          <mxGeometry relative="1" as="geometry" />
        </mxCell>
        <mxCell id="lXKv8VVwfeRp8iMqqX64-29" value="" style="sketch=0;html=1;dashed=0;whitespace=wrap;fillColor=#2875E2;strokeColor=#ffffff;points=[[0.005,0.63,0],[0.1,0.2,0],[0.9,0.2,0],[0.5,0,0],[0.995,0.63,0],[0.72,0.99,0],[0.5,1,0],[0.28,0.99,0]];shape=mxgraph.kubernetes.icon;prIcon=pod" vertex="1" parent="lXKv8VVwfeRp8iMqqX64-47">
          <mxGeometry x="160" y="110" width="50" height="48" as="geometry" />
        </mxCell>
        <mxCell id="lXKv8VVwfeRp8iMqqX64-39" value="" style="sketch=0;html=1;dashed=0;whitespace=wrap;fillColor=#2875E2;strokeColor=#ffffff;points=[[0.005,0.63,0],[0.1,0.2,0],[0.9,0.2,0],[0.5,0,0],[0.995,0.63,0],[0.72,0.99,0],[0.5,1,0],[0.28,0.99,0]];shape=mxgraph.kubernetes.icon;prIcon=secret" vertex="1" parent="lXKv8VVwfeRp8iMqqX64-47">
          <mxGeometry x="80" y="230" width="50" height="48" as="geometry" />
        </mxCell>
        <mxCell id="lXKv8VVwfeRp8iMqqX64-40" value="" style="edgeStyle=orthogonalEdgeStyle;rounded=0;orthogonalLoop=1;jettySize=auto;html=1;" edge="1" parent="lXKv8VVwfeRp8iMqqX64-47" source="lXKv8VVwfeRp8iMqqX64-21" target="lXKv8VVwfeRp8iMqqX64-39">
          <mxGeometry relative="1" as="geometry" />
        </mxCell>
        <mxCell id="lXKv8VVwfeRp8iMqqX64-44" style="edgeStyle=orthogonalEdgeStyle;rounded=0;orthogonalLoop=1;jettySize=auto;html=1;exitX=0.995;exitY=0.63;exitDx=0;exitDy=0;exitPerimeter=0;entryX=0.005;entryY=0.63;entryDx=0;entryDy=0;entryPerimeter=0;" edge="1" parent="lXKv8VVwfeRp8iMqqX64-47" source="lXKv8VVwfeRp8iMqqX64-21" target="lXKv8VVwfeRp8iMqqX64-37">
          <mxGeometry relative="1" as="geometry" />
        </mxCell>
        <mxCell id="lXKv8VVwfeRp8iMqqX64-21" value="" style="sketch=0;html=1;dashed=0;whitespace=wrap;fillColor=#2875E2;strokeColor=#ffffff;points=[[0.005,0.63,0],[0.1,0.2,0],[0.9,0.2,0],[0.5,0,0],[0.995,0.63,0],[0.72,0.99,0],[0.5,1,0],[0.28,0.99,0]];shape=mxgraph.kubernetes.icon;prIcon=pod" vertex="1" parent="lXKv8VVwfeRp8iMqqX64-47">
          <mxGeometry x="160" y="230" width="50" height="48" as="geometry" />
        </mxCell>
        <mxCell id="lXKv8VVwfeRp8iMqqX64-41" style="edgeStyle=orthogonalEdgeStyle;rounded=0;orthogonalLoop=1;jettySize=auto;html=1;exitX=0.995;exitY=0.63;exitDx=0;exitDy=0;exitPerimeter=0;entryX=0.005;entryY=0.63;entryDx=0;entryDy=0;entryPerimeter=0;" edge="1" parent="lXKv8VVwfeRp8iMqqX64-47" source="lXKv8VVwfeRp8iMqqX64-33" target="lXKv8VVwfeRp8iMqqX64-37">
          <mxGeometry relative="1" as="geometry" />
        </mxCell>
        <mxCell id="lXKv8VVwfeRp8iMqqX64-43" style="edgeStyle=orthogonalEdgeStyle;rounded=0;orthogonalLoop=1;jettySize=auto;html=1;exitX=0.995;exitY=0.63;exitDx=0;exitDy=0;exitPerimeter=0;entryX=0.005;entryY=0.63;entryDx=0;entryDy=0;entryPerimeter=0;" edge="1" parent="lXKv8VVwfeRp8iMqqX64-47" source="lXKv8VVwfeRp8iMqqX64-25" target="lXKv8VVwfeRp8iMqqX64-37">
          <mxGeometry relative="1" as="geometry" />
        </mxCell>
        <mxCell id="lXKv8VVwfeRp8iMqqX64-46" style="edgeStyle=orthogonalEdgeStyle;rounded=0;orthogonalLoop=1;jettySize=auto;html=1;exitX=0.995;exitY=0.63;exitDx=0;exitDy=0;exitPerimeter=0;entryX=0.005;entryY=0.63;entryDx=0;entryDy=0;entryPerimeter=0;" edge="1" parent="lXKv8VVwfeRp8iMqqX64-47" source="lXKv8VVwfeRp8iMqqX64-13" target="lXKv8VVwfeRp8iMqqX64-37">
          <mxGeometry relative="1" as="geometry" />
        </mxCell>
        <mxCell id="lXKv8VVwfeRp8iMqqX64-55" value="postgres.default" style="text;html=1;strokeColor=none;fillColor=none;align=center;verticalAlign=middle;whiteSpace=wrap;rounded=0;" vertex="1" parent="lXKv8VVwfeRp8iMqqX64-47">
          <mxGeometry x="365" y="210" width="60" height="30" as="geometry" />
        </mxCell>
        <mxCell id="lXKv8VVwfeRp8iMqqX64-53" value="" style="edgeStyle=orthogonalEdgeStyle;rounded=0;orthogonalLoop=1;jettySize=auto;html=1;" edge="1" parent="1" source="lXKv8VVwfeRp8iMqqX64-49" target="lXKv8VVwfeRp8iMqqX64-50">
          <mxGeometry relative="1" as="geometry" />
        </mxCell>
        <mxCell id="lXKv8VVwfeRp8iMqqX64-49" value="" style="shape=image;html=1;verticalAlign=top;verticalLabelPosition=bottom;labelBackgroundColor=#ffffff;imageAspect=0;aspect=fixed;image=https://cdn2.iconfinder.com/data/icons/whcompare-servers-web-hosting/50/dedicated-ip-address-128.png;rounded=1;fillColor=#CDA2BE;" vertex="1" parent="1">
          <mxGeometry x="710" y="326" width="90" height="90" as="geometry" />
        </mxCell>
        <mxCell id="lXKv8VVwfeRp8iMqqX64-54" value="" style="edgeStyle=orthogonalEdgeStyle;rounded=0;orthogonalLoop=1;jettySize=auto;html=1;" edge="1" parent="1" source="lXKv8VVwfeRp8iMqqX64-50" target="lXKv8VVwfeRp8iMqqX64-51">
          <mxGeometry relative="1" as="geometry" />
        </mxCell>
        <mxCell id="lXKv8VVwfeRp8iMqqX64-50" value="" style="aspect=fixed;html=1;points=[];align=center;image;fontSize=12;image=img/lib/azure2/networking/Azure_Firewall_Manager.svg;rounded=1;fillColor=#CDA2BE;" vertex="1" parent="1">
          <mxGeometry x="960" y="341" width="70" height="60" as="geometry" />
        </mxCell>
        <mxCell id="lXKv8VVwfeRp8iMqqX64-51" value="" style="aspect=fixed;html=1;points=[];align=center;image;fontSize=12;image=img/lib/azure2/databases/Azure_Database_PostgreSQL_Server.svg;rounded=1;fillColor=#CDA2BE;" vertex="1" parent="1">
          <mxGeometry x="1150" y="339" width="48" height="64" as="geometry" />
        </mxCell>
        <mxCell id="lXKv8VVwfeRp8iMqqX64-52" style="edgeStyle=orthogonalEdgeStyle;rounded=0;orthogonalLoop=1;jettySize=auto;html=1;exitX=0.995;exitY=0.63;exitDx=0;exitDy=0;exitPerimeter=0;" edge="1" parent="1" source="lXKv8VVwfeRp8iMqqX64-37" target="lXKv8VVwfeRp8iMqqX64-49">
          <mxGeometry relative="1" as="geometry" />
        </mxCell>
      </root>
    </mxGraphModel>
  </diagram>
</mxfile>
